<svg width="16" height="16" viewBox="0 0 16 16" fill="none" xmlns="http://www.w3.org/2000/svg">
<path d="M9.23626 8.21997L15.2527 2.20349C15.5824 1.87382 15.5824 1.3381 15.2527 0.967223C14.9231 0.637553 14.3874 0.637553 14.0165 0.967223L8 6.98371L1.98352 0.967223C1.65385 0.637553 1.11813 0.637553 0.747253 0.967223C0.417582 1.29689 0.417582 1.83261 0.747253 2.20349L6.76374 8.21997L0.747253 14.2365C0.417582 14.5661 0.417582 15.1018 0.747253 15.4727C0.912088 15.6376 1.15934 15.72 1.36538 15.72C1.57143 15.72 1.81868 15.6376 1.98352 15.4727L8 9.45624L14.0165 15.4727C14.1813 15.6376 14.3874 15.72 14.6346 15.72C14.8407 15.72 15.0879 15.6376 15.2527 15.4727C15.5824 15.143 15.5824 14.6073 15.2527 14.2365L9.23626 8.21997Z" fill="black"/>
</svg>
