<svg width="3000" height="3000" viewBox="0 0 3000 3000" fill="none" xmlns="http://www.w3.org/2000/svg">
<path d="M3000 1500C3000.04 1436.5 2946.68 1399.2 2890.17 1388.37C2890.17 1388.37 2890.17 1388.37 2890.17 1388.36C2874.23 1384.51 2868.25 1379.26 2877.03 1368.37C2877.68 1367.64 2878.32 1366.9 2878.96 1366.15C2879.05 1366.06 2879.11 1365.97 2879.2 1365.87H2879.19C2917.12 1321.33 2935.68 1256.89 2894.43 1207.31L2894.44 1207.32C2870.65 1178.44 2840.78 1168.14 2810.07 1169.8C2809.01 1169.86 2807.96 1170.01 2806.89 1170.09C2826.33 1149.7 2838.36 1122.16 2838.36 1091.75C2838.36 1061.64 2826.55 1034.34 2807.43 1014.01C2823.46 1014.52 2839.79 1011.77 2856.08 1004.8C2870.51 998.671 2884.1 988.731 2894.44 976.176V976.185C2909.65 957.889 2916.74 937.625 2917.73 917.097C2919.34 883.713 2904.8 849.648 2882.89 822.227C2882.89 822.213 2882.9 822.208 2882.9 822.204C2874.07 810.153 2874.18 797.546 2887.29 795.708V795.699C2944.86 785.56 3000.06 747.903 2999.99 683.505C3000.03 620.009 2946.68 582.708 2890.17 571.88C2890.17 571.88 2890.17 571.875 2890.17 571.87C2874.23 568.014 2868.24 562.768 2877.02 551.88C2877.68 551.144 2878.32 550.403 2878.95 549.657C2879.05 549.56 2879.1 549.477 2879.2 549.384H2879.19C2917.12 504.838 2935.68 440.403 2894.43 390.824L2894.44 390.833C2870.64 361.954 2840.77 351.657 2810.06 353.31C2809.01 353.37 2807.95 353.523 2806.89 353.611C2826.33 333.218 2838.35 305.667 2838.35 275.269C2838.35 212.509 2787.48 161.639 2724.72 161.639C2694.32 161.639 2666.77 173.653 2646.38 193.097C2646.46 192.037 2646.63 190.977 2646.67 189.917C2648.32 159.218 2638.03 129.347 2609.15 105.551L2609.16 105.565C2559.59 64.301 2495.15 82.8658 2450.61 120.801V120.792C2450.51 120.884 2450.42 120.945 2450.32 121.032C2449.58 121.667 2448.84 122.315 2448.1 122.963C2437.21 131.75 2431.97 125.764 2428.11 109.815C2428.1 109.815 2428.1 109.819 2428.1 109.819C2417.27 53.3056 2379.97 -0.0462218 2316.48 7.44623e-05C2252.08 -0.0739996 2214.42 55.1297 2204.28 112.704L2204.28 112.699C2202.44 125.815 2189.83 125.921 2177.79 117.093C2177.77 117.093 2177.77 117.097 2177.76 117.102C2150.33 95.1945 2116.27 80.6528 2082.89 82.2639C2062.36 83.25 2042.09 90.3426 2023.8 105.56L2023.81 105.556C2011.25 115.894 2001.32 129.486 1995.19 143.917C1988.21 160.199 1985.46 176.523 1985.98 192.556C1965.65 173.435 1938.35 161.639 1908.23 161.639C1877.83 161.639 1850.28 173.653 1829.89 193.097C1829.98 192.037 1830.13 190.977 1830.19 189.917C1831.85 159.218 1821.54 129.347 1792.67 105.551L1792.68 105.565C1743.1 64.301 1678.66 82.8658 1634.11 120.801V120.792C1634.02 120.884 1633.93 120.945 1633.84 121.032C1633.09 121.667 1632.35 122.315 1631.62 122.963C1620.72 131.75 1615.48 125.764 1611.62 109.815C1611.62 109.815 1611.62 109.819 1611.61 109.819C1600.79 53.3056 1563.48 -0.0462218 1499.99 7.44623e-05C1435.59 -0.0739996 1397.93 55.1297 1387.79 112.704L1387.79 112.699C1385.95 125.815 1373.34 125.921 1361.29 117.093C1361.28 117.093 1361.28 117.097 1361.27 117.102C1333.85 95.1945 1299.79 80.6528 1266.41 82.2639C1245.87 83.25 1225.61 90.3426 1207.32 105.56L1207.33 105.556C1194.77 115.894 1184.83 129.486 1178.71 143.917C1171.74 160.199 1168.98 176.523 1169.49 192.556C1149.16 173.435 1121.87 161.639 1091.75 161.639C1061.64 161.639 1034.34 173.435 1014 192.556C1014.51 176.523 1011.76 160.199 1004.79 143.917C998.676 129.486 988.727 115.894 976.171 105.556L976.181 105.56C957.889 90.3426 937.625 83.2547 917.098 82.2639C883.709 80.6528 849.644 95.1899 822.228 117.102C822.219 117.097 822.209 117.093 822.205 117.093C810.149 125.921 797.547 125.81 795.709 112.699L795.7 112.704C785.561 55.1297 747.909 -0.0739996 683.506 7.44623e-05C620.016 -0.0462218 582.715 53.3102 571.886 109.819C571.877 109.819 571.877 109.815 571.877 109.815C568.025 125.764 562.771 131.75 551.882 122.963C551.141 122.315 550.405 121.667 549.655 121.032C549.567 120.945 549.474 120.884 549.386 120.792V120.801C504.845 82.8658 440.401 64.3056 390.822 105.565L390.827 105.551C361.952 129.343 351.651 159.213 353.304 189.917C353.369 190.977 353.517 192.037 353.61 193.097C333.216 173.653 305.67 161.639 275.267 161.639C212.508 161.639 161.643 212.509 161.643 275.269C161.643 305.667 173.647 333.218 193.101 353.611C192.041 353.523 190.976 353.37 189.916 353.31C159.217 351.657 129.347 361.954 105.555 390.833L105.564 390.824C64.3007 440.403 82.8608 504.838 120.8 549.384H120.796C120.888 549.482 120.949 549.565 121.037 549.657C121.671 550.407 122.314 551.148 122.967 551.88C131.749 562.773 125.773 568.019 109.819 571.87C53.31 582.699 -0.041592 620.009 7.44494e-05 683.505C-0.0739993 747.903 55.1387 785.56 112.699 795.699V795.708C125.814 797.546 125.921 810.153 117.097 822.204C117.097 822.208 117.097 822.213 117.101 822.227C95.1895 849.644 80.6478 883.708 82.2682 917.097C83.2543 937.625 90.3468 957.889 105.56 976.185V976.176C115.893 988.727 129.486 998.671 143.916 1004.8C160.198 1011.77 176.527 1014.51 192.555 1014.01C173.434 1034.34 161.643 1061.64 161.643 1091.75C161.643 1121.87 173.43 1149.17 192.555 1169.5C176.527 1168.99 160.198 1171.74 143.916 1178.71C129.486 1184.83 115.893 1194.77 105.56 1207.32V1207.31C90.3468 1225.61 83.2589 1245.87 82.2682 1266.4C80.6525 1299.79 95.1941 1333.85 117.101 1361.27C117.097 1361.28 117.097 1361.29 117.097 1361.3C125.921 1373.35 125.81 1385.95 112.699 1387.79V1387.8C55.148 1397.94 -0.0647452 1435.6 0.00932858 1500C-0.0323379 1563.49 53.3192 1600.79 109.828 1611.62C109.828 1611.62 109.828 1611.62 109.828 1611.63C125.782 1615.49 131.759 1620.73 122.976 1631.62C122.328 1632.36 121.685 1633.1 121.046 1633.84C120.958 1633.94 120.898 1634.03 120.805 1634.13H120.81C82.8701 1678.67 64.31 1743.1 105.574 1792.68L105.564 1792.67C129.351 1821.55 159.226 1831.85 189.925 1830.19C190.985 1830.13 192.05 1829.98 193.11 1829.9C173.657 1850.29 161.652 1877.83 161.652 1908.24C161.652 1938.36 173.439 1965.65 192.564 1985.99C176.536 1985.48 160.208 1988.23 143.925 1995.2C129.495 2001.32 115.902 2011.26 105.569 2023.82V2023.81C90.3561 2042.1 83.2682 2062.37 82.2774 2082.89C80.6617 2116.28 95.2034 2150.34 117.111 2177.76C117.106 2177.78 117.106 2177.78 117.106 2177.79C125.93 2189.84 125.819 2202.44 112.708 2204.28V2204.3C55.1433 2214.44 -0.0647452 2252.09 0.00932858 2316.49C-0.0323379 2379.98 53.3192 2417.28 109.828 2428.11C109.828 2428.12 109.828 2428.12 109.828 2428.12C125.782 2431.98 131.759 2437.23 122.976 2448.12C122.328 2448.85 121.685 2449.59 121.046 2450.33C120.958 2450.43 120.898 2450.52 120.805 2450.61H120.81C82.8701 2495.16 64.31 2559.59 105.574 2609.17L105.564 2609.16C129.351 2638.04 159.226 2648.34 189.925 2646.68C190.985 2646.62 192.05 2646.47 193.11 2646.39C173.657 2666.78 161.652 2694.32 161.652 2724.73C161.652 2787.49 212.518 2838.36 275.277 2838.36C305.679 2838.36 333.225 2826.35 353.619 2806.89C353.526 2807.95 353.378 2809.02 353.313 2810.08C351.66 2840.78 361.961 2870.65 390.836 2894.44L390.832 2894.43C440.41 2935.69 504.85 2917.12 549.396 2879.19V2879.2C549.488 2879.11 549.576 2879.06 549.664 2878.96C550.414 2878.32 551.15 2877.68 551.891 2877.03C562.78 2868.25 568.034 2874.23 571.886 2890.18C571.886 2890.18 571.886 2890.18 571.896 2890.18C582.724 2946.69 620.025 3000.04 683.515 3000C747.918 3000.07 785.566 2944.87 795.709 2887.3L795.719 2887.3C797.557 2874.18 810.163 2874.08 822.214 2882.91C822.218 2882.91 822.228 2882.9 822.237 2882.89C849.649 2904.81 883.714 2919.35 917.107 2917.73C937.635 2916.74 957.898 2909.65 976.19 2894.43L976.181 2894.44C988.732 2884.11 998.681 2870.51 1004.8 2856.08C1011.77 2839.8 1014.52 2823.47 1014.01 2807.44C1034.35 2826.56 1061.65 2838.36 1091.76 2838.36C1122.17 2838.36 1149.71 2826.35 1170.11 2806.89C1170.02 2807.95 1169.87 2809.02 1169.81 2810.08C1168.16 2840.78 1178.45 2870.65 1207.33 2894.44L1207.32 2894.43C1256.9 2935.69 1321.34 2917.12 1365.88 2879.19V2879.2C1365.98 2879.11 1366.07 2879.06 1366.16 2878.96C1366.91 2878.32 1367.65 2877.68 1368.38 2877.03C1379.27 2868.25 1384.52 2874.23 1388.37 2890.18C1388.37 2890.18 1388.37 2890.18 1388.37 2890.18C1399.21 2946.69 1436.51 3000.04 1500.01 3000C1564.4 3000.07 1602.06 2944.87 1612.2 2887.3L1612.21 2887.3C1614.04 2874.18 1626.65 2874.08 1638.7 2882.91C1638.7 2882.91 1638.71 2882.9 1638.71 2882.89C1666.14 2904.81 1700.21 2919.35 1733.59 2917.73C1754.12 2916.74 1774.39 2909.65 1792.68 2894.43L1792.67 2894.44C1805.22 2884.11 1815.17 2870.51 1821.29 2856.08C1828.26 2839.8 1831.01 2823.47 1830.5 2807.44C1850.84 2826.56 1878.14 2838.36 1908.25 2838.36C1938.36 2838.36 1965.66 2826.56 1985.99 2807.44C1985.48 2823.47 1988.23 2839.8 1995.21 2856.08C2001.33 2870.51 2011.27 2884.11 2023.82 2894.44L2023.81 2894.43C2042.11 2909.65 2062.37 2916.74 2082.9 2917.73C2116.29 2919.34 2150.35 2904.8 2177.77 2882.89C2177.78 2882.89 2177.79 2882.9 2177.8 2882.9C2189.85 2874.07 2202.45 2874.18 2204.29 2887.3L2204.3 2887.29C2214.43 2944.87 2252.1 3000.06 2316.49 3000C2379.98 3000.04 2417.29 2946.68 2428.12 2890.18C2428.12 2890.18 2428.12 2890.18 2428.13 2890.18C2431.98 2874.23 2437.22 2868.25 2448.12 2877.02C2448.85 2877.68 2449.59 2878.32 2450.34 2878.96C2450.43 2879.05 2450.52 2879.11 2450.62 2879.2V2879.19C2495.16 2917.12 2559.6 2935.69 2609.17 2894.43L2609.16 2894.44C2638.04 2870.64 2648.33 2840.77 2646.69 2810.07C2646.63 2809.01 2646.47 2807.95 2646.39 2806.9C2666.78 2826.34 2694.33 2838.36 2724.73 2838.36C2787.48 2838.36 2838.36 2787.48 2838.36 2724.72C2838.36 2694.32 2826.34 2666.77 2806.9 2646.38C2807.96 2646.47 2809.01 2646.62 2810.07 2646.68C2840.78 2648.33 2870.65 2638.03 2894.45 2609.16L2894.44 2609.16C2935.69 2559.59 2917.13 2495.15 2879.19 2450.61H2879.21C2879.11 2450.51 2879.06 2450.42 2878.96 2450.33C2878.33 2449.58 2877.69 2448.84 2877.03 2448.11C2868.25 2437.22 2874.24 2431.97 2890.18 2428.12C2890.18 2428.11 2890.18 2428.11 2890.18 2428.11C2946.69 2417.28 3000.04 2379.98 3000 2316.49C3000.08 2252.09 2944.87 2214.43 2887.3 2204.29V2204.28C2874.19 2202.44 2874.08 2189.84 2882.91 2177.79C2882.91 2177.78 2882.9 2177.77 2882.9 2177.76C2904.81 2150.34 2919.35 2116.28 2917.74 2082.89C2916.75 2062.36 2909.66 2042.1 2894.45 2023.81V2023.81C2884.11 2011.26 2870.52 2001.32 2856.09 1995.19C2839.8 1988.22 2823.47 1985.47 2807.44 1985.98C2826.56 1965.65 2838.37 1938.35 2838.37 1908.24C2838.37 1878.13 2826.56 1850.82 2807.44 1830.5C2823.47 1831 2839.8 1828.25 2856.09 1821.28C2870.52 1815.16 2884.11 1805.21 2894.45 1792.65V1792.67C2909.66 1774.38 2916.75 1754.11 2917.74 1733.58C2919.35 1700.19 2904.81 1666.13 2882.9 1638.71C2882.9 1638.7 2882.91 1638.7 2882.91 1638.69C2874.08 1626.63 2874.19 1614.04 2887.3 1612.2V1612.18C2944.87 1602.05 3000.07 1564.4 3000 1500ZM154.847 431.69C185.383 394.861 274.031 428.023 320.6 549.769C327.008 568.292 313.272 574.81 303.758 573.125C173.865 550.435 124.129 468.731 154.847 431.69ZM64.0229 683.505C64.0229 636.181 151.485 605.338 263.249 666.556C281.193 677.417 278.605 691.014 265.536 699.204C152.68 762.111 64.0229 731.148 64.0229 683.505ZM154.847 935.319C124.611 898.852 172.393 819.13 297.827 795.014C314.221 792.588 325.846 802.958 319.994 818.75C273.281 939.236 185.258 971.995 154.847 935.319ZM154.847 1248.18C185.258 1211.5 273.281 1244.27 319.994 1364.75C325.846 1380.54 314.216 1390.92 297.827 1388.49C172.393 1364.37 124.611 1284.65 154.847 1248.18ZM64.0229 1500C64.0229 1452.35 152.68 1421.39 265.536 1484.29C278.605 1492.49 281.193 1506.08 263.249 1516.94C151.485 1578.16 64.0229 1547.31 64.0229 1500ZM154.847 1751.81C124.129 1714.77 173.86 1633.06 303.763 1610.37C313.276 1608.69 327.012 1615.2 320.605 1633.73C274.031 1755.47 185.383 1788.64 154.847 1751.81ZM154.847 2064.67C185.258 2027.99 273.281 2060.76 319.994 2181.25C325.846 2197.03 314.216 2207.4 297.827 2204.98C172.393 2180.86 124.611 2101.14 154.847 2064.67ZM64.0229 2316.49C64.0229 2268.84 152.68 2237.88 265.536 2300.78C278.605 2308.98 281.193 2322.56 263.249 2333.43C151.485 2394.65 64.0229 2363.81 64.0229 2316.49ZM154.847 2568.3C124.129 2531.26 173.86 2449.56 303.763 2426.86C313.276 2425.18 327.012 2431.69 320.605 2450.22C274.031 2571.96 185.383 2605.13 154.847 2568.3ZM275.277 2777.54C246.105 2777.54 222.462 2753.9 222.462 2724.73C222.462 2695.56 246.105 2671.92 275.277 2671.92C304.443 2671.92 328.082 2695.56 328.082 2724.73C328.086 2753.9 304.448 2777.54 275.277 2777.54ZM275.277 1961.05C246.105 1961.05 222.462 1937.41 222.462 1908.24C222.462 1879.07 246.105 1855.43 275.277 1855.43C304.443 1855.43 328.082 1879.07 328.082 1908.24C328.086 1937.41 304.448 1961.05 275.277 1961.05ZM275.277 1144.56C246.105 1144.56 222.462 1120.92 222.462 1091.75C222.462 1062.58 246.105 1038.94 275.277 1038.94C304.443 1038.94 328.082 1062.58 328.082 1091.75C328.086 1120.92 304.448 1144.56 275.277 1144.56ZM275.277 328.074C246.11 328.074 222.462 304.431 222.462 275.264C222.462 246.093 246.11 222.449 275.277 222.449C304.438 222.449 328.082 246.093 328.082 275.264C328.086 304.431 304.443 328.074 275.277 328.074ZM795.019 297.824C819.135 172.375 898.857 124.593 935.329 154.833C972.009 185.25 939.241 273.269 818.756 319.986C802.973 325.838 792.603 314.208 795.019 297.824ZM767.024 363.097C787.691 363.097 804.459 379.852 804.459 400.523C804.459 421.199 787.691 437.949 767.024 437.949C746.358 437.949 729.603 421.194 729.603 400.523C729.608 379.857 746.358 363.097 767.024 363.097ZM583.789 363.097C604.451 363.097 621.215 379.852 621.215 400.523C621.215 421.199 604.446 437.949 583.789 437.949C563.118 437.949 546.359 421.194 546.359 400.523C546.359 379.857 563.113 363.097 583.789 363.097ZM431.702 154.833C468.743 124.12 550.442 173.852 573.136 303.755C574.821 313.269 568.303 327.005 549.775 320.593C428.04 274.023 394.873 185.375 431.702 154.833ZM400.54 363.097C421.206 363.097 437.966 379.852 437.966 400.523C437.966 421.199 421.206 437.949 400.54 437.949C379.864 437.949 363.109 421.194 363.109 400.523C363.109 379.857 379.864 363.097 400.54 363.097ZM400.54 546.343C421.206 546.343 437.966 563.102 437.966 583.768C437.966 604.435 421.206 621.194 400.54 621.194C379.864 621.194 363.109 604.435 363.109 583.768C363.109 563.102 379.864 546.343 400.54 546.343ZM400.54 729.588C421.206 729.588 437.966 746.347 437.966 767.018C437.966 787.685 421.206 804.444 400.54 804.444C379.864 804.444 363.109 787.685 363.109 767.018C363.109 746.347 379.864 729.588 400.54 729.588ZM400.54 912.833C421.206 912.833 437.966 929.588 437.966 950.259C437.966 970.931 421.206 987.69 400.54 987.69C379.864 987.69 363.109 970.926 363.109 950.259C363.109 929.593 379.864 912.833 400.54 912.833ZM400.54 1096.08C421.206 1096.08 437.966 1112.83 437.966 1133.5C437.966 1154.18 421.206 1170.93 400.54 1170.93C379.864 1170.93 363.109 1154.18 363.109 1133.5C363.109 1112.83 379.864 1096.08 400.54 1096.08ZM400.54 1279.32C421.206 1279.32 437.966 1296.08 437.966 1316.75C437.966 1337.42 421.206 1354.18 400.54 1354.18C379.864 1354.18 363.109 1337.42 363.109 1316.75C363.109 1296.08 379.864 1279.32 400.54 1279.32ZM400.54 1462.56C421.206 1462.56 437.966 1479.32 437.966 1500C437.966 1520.67 421.206 1537.42 400.54 1537.42C379.864 1537.42 363.109 1520.67 363.109 1500C363.109 1479.32 379.864 1462.56 400.54 1462.56ZM400.54 1645.81C421.206 1645.81 437.966 1662.57 437.966 1683.24C437.966 1703.91 421.206 1720.67 400.54 1720.67C379.864 1720.67 363.109 1703.91 363.109 1683.24C363.109 1662.57 379.864 1645.81 400.54 1645.81ZM400.54 1829.06C421.206 1829.06 437.966 1845.81 437.966 1866.49C437.966 1887.16 421.206 1903.92 400.54 1903.92C379.864 1903.92 363.109 1887.16 363.109 1866.49C363.109 1845.81 379.864 1829.06 400.54 1829.06ZM400.54 2012.3C421.206 2012.3 437.966 2029.06 437.966 2049.73C437.966 2070.4 421.206 2087.16 400.54 2087.16C379.864 2087.16 363.109 2070.4 363.109 2049.73C363.109 2029.06 379.864 2012.3 400.54 2012.3ZM400.54 2195.55C421.206 2195.55 437.966 2212.31 437.966 2232.97C437.966 2253.64 421.206 2270.4 400.54 2270.4C379.864 2270.4 363.109 2253.64 363.109 2232.97C363.109 2212.31 379.864 2195.55 400.54 2195.55ZM400.54 2378.79C421.206 2378.79 437.966 2395.55 437.966 2416.22C437.966 2436.89 421.206 2453.64 400.54 2453.64C379.864 2453.64 363.109 2436.89 363.109 2416.22C363.109 2395.55 379.864 2378.79 400.54 2378.79ZM363.109 2599.47C363.109 2578.79 379.864 2562.04 400.54 2562.04C421.206 2562.04 437.966 2578.79 437.966 2599.47C437.966 2620.13 421.206 2636.89 400.54 2636.89C379.864 2636.89 363.109 2620.13 363.109 2599.47ZM573.141 2696.24C550.447 2826.13 468.748 2875.87 431.706 2845.15C394.878 2814.61 428.044 2725.96 549.78 2679.4C568.308 2672.99 574.821 2686.73 573.141 2696.24ZM583.789 2636.89C563.118 2636.89 546.359 2620.13 546.359 2599.47C546.359 2578.79 563.118 2562.04 583.789 2562.04C604.451 2562.04 621.215 2578.79 621.215 2599.47C621.215 2620.13 604.446 2636.89 583.789 2636.89ZM683.515 2935.98C636.196 2935.98 605.354 2848.51 666.576 2736.75C677.432 2718.82 691.029 2721.4 699.219 2734.47C762.126 2847.32 731.163 2935.98 683.515 2935.98ZM699.219 265.523C691.025 278.597 677.427 281.181 666.576 263.241C605.354 151.477 636.196 64.0093 683.515 64.0093C731.163 64.0093 762.126 152.667 699.219 265.523ZM729.608 2599.47C729.608 2578.79 746.362 2562.04 767.029 2562.04C787.695 2562.04 804.464 2578.79 804.464 2599.47C804.464 2620.13 787.695 2636.89 767.029 2636.89C746.358 2636.89 729.608 2620.13 729.608 2599.47ZM935.329 2845.15C898.862 2875.39 819.135 2827.61 795.019 2702.17C792.598 2685.78 802.969 2674.15 818.756 2680C939.241 2726.72 972.009 2814.74 935.329 2845.15ZM950.273 2636.89C929.607 2636.89 912.852 2620.13 912.852 2599.47C912.852 2578.79 929.607 2562.04 950.273 2562.04C970.94 2562.04 987.708 2578.79 987.708 2599.47C987.708 2620.13 970.945 2636.89 950.273 2636.89ZM950.273 437.954C929.607 437.954 912.852 421.199 912.852 400.528C912.852 379.857 929.607 363.102 950.273 363.102C970.94 363.102 987.708 379.857 987.708 400.528C987.708 421.199 970.945 437.954 950.273 437.954ZM1091.76 222.449C1120.93 222.449 1144.57 246.093 1144.57 275.264C1144.57 304.431 1120.93 328.074 1091.76 328.074C1062.6 328.074 1038.95 304.431 1038.95 275.264C1038.95 246.093 1062.6 222.449 1091.76 222.449ZM1091.76 2777.54C1062.6 2777.54 1038.95 2753.9 1038.95 2724.73C1038.95 2695.56 1062.6 2671.92 1091.76 2671.92C1120.93 2671.92 1144.57 2695.56 1144.57 2724.73C1144.57 2753.9 1120.92 2777.54 1091.76 2777.54ZM1133.52 2636.89C1112.85 2636.89 1096.09 2620.13 1096.09 2599.47C1096.09 2578.79 1112.85 2562.04 1133.52 2562.04C1154.19 2562.04 1170.94 2578.79 1170.94 2599.47C1170.94 2620.13 1154.18 2636.89 1133.52 2636.89ZM1133.52 437.954C1112.85 437.954 1096.09 421.199 1096.09 400.528C1096.09 379.857 1112.85 363.102 1133.52 363.102C1154.19 363.102 1170.94 379.857 1170.94 400.528C1170.94 421.199 1154.18 437.954 1133.52 437.954ZM1248.19 154.833C1284.66 124.593 1364.39 172.38 1388.49 297.824C1390.92 314.208 1380.55 325.838 1364.77 319.986C1244.28 273.269 1211.51 185.245 1248.19 154.833ZM1316.76 437.954C1296.09 437.954 1279.33 421.199 1279.33 400.528C1279.33 379.857 1296.09 363.102 1316.76 363.102C1337.43 363.102 1354.18 379.857 1354.18 400.528C1354.19 421.199 1337.43 437.954 1316.76 437.954ZM1354.19 2599.47C1354.19 2620.13 1337.43 2636.89 1316.76 2636.89C1296.1 2636.89 1279.34 2620.13 1279.34 2599.47C1279.34 2578.79 1296.1 2562.04 1316.76 2562.04C1337.43 2562.04 1354.19 2578.79 1354.19 2599.47ZM1389.63 2696.24C1366.93 2826.13 1285.23 2875.87 1248.19 2845.15C1211.37 2814.61 1244.53 2725.96 1366.27 2679.4C1384.79 2672.99 1391.31 2686.73 1389.63 2696.24ZM1500.01 64.0093C1547.33 64.0093 1578.17 151.477 1516.95 263.241C1506.09 281.181 1492.49 278.597 1484.3 265.523C1421.4 152.667 1452.36 64.0093 1500.01 64.0093ZM1500.01 437.954C1479.34 437.954 1462.58 421.199 1462.58 400.528C1462.58 379.857 1479.34 363.102 1500.01 363.102C1520.67 363.102 1537.43 379.857 1537.43 400.528C1537.43 421.199 1520.67 437.954 1500.01 437.954ZM1537.43 2599.47C1537.43 2620.13 1520.68 2636.89 1500.01 2636.89C1479.34 2636.89 1462.59 2620.13 1462.59 2599.47C1462.59 2578.79 1479.35 2562.04 1500.01 2562.04C1520.68 2562.04 1537.43 2578.79 1537.43 2599.47ZM1500.01 2935.98C1452.68 2935.98 1421.84 2848.51 1483.06 2736.75C1493.91 2718.82 1507.51 2721.4 1515.7 2734.47C1578.61 2847.32 1547.64 2935.98 1500.01 2935.98ZM1751.82 2845.15C1715.35 2875.39 1635.63 2827.61 1611.52 2702.17C1609.09 2685.78 1619.46 2674.15 1635.25 2680C1755.73 2726.72 1788.49 2814.74 1751.82 2845.15ZM1683.25 2562.04C1703.92 2562.04 1720.67 2578.79 1720.67 2599.47C1720.67 2620.13 1703.92 2636.89 1683.25 2636.89C1662.58 2636.89 1645.82 2620.13 1645.82 2599.47C1645.82 2578.79 1662.58 2562.04 1683.25 2562.04ZM1645.82 400.523C1645.82 379.852 1662.58 363.097 1683.25 363.097C1703.92 363.097 1720.67 379.852 1720.67 400.523C1720.67 421.199 1703.92 437.949 1683.25 437.949C1662.58 437.954 1645.82 421.199 1645.82 400.523ZM1633.74 320.588C1615.21 327.005 1608.7 313.264 1610.39 303.75C1633.08 173.852 1714.78 124.12 1751.82 154.829C1788.65 185.375 1755.47 274.023 1633.74 320.588ZM1866.49 363.097C1887.16 363.097 1903.92 379.852 1903.92 400.523C1903.92 421.199 1887.16 437.949 1866.49 437.949C1845.82 437.949 1829.06 421.194 1829.06 400.523C1829.07 379.857 1845.82 363.097 1866.49 363.097ZM1829.07 2599.47C1829.07 2578.79 1845.82 2562.04 1866.49 2562.04C1887.17 2562.04 1903.92 2578.79 1903.92 2599.47C1903.92 2620.13 1887.17 2636.89 1866.49 2636.89C1845.82 2636.89 1829.07 2620.13 1829.07 2599.47ZM1908.25 2777.54C1879.08 2777.54 1855.43 2753.9 1855.43 2724.73C1855.43 2695.56 1879.08 2671.92 1908.25 2671.92C1937.41 2671.92 1961.06 2695.56 1961.06 2724.73C1961.06 2753.9 1937.41 2777.54 1908.25 2777.54ZM1908.25 328.074C1879.08 328.074 1855.43 304.431 1855.43 275.264C1855.43 246.093 1879.08 222.449 1908.25 222.449C1937.41 222.449 1961.06 246.093 1961.06 275.264C1961.06 304.431 1937.41 328.074 1908.25 328.074ZM2426.86 303.75C2449.55 173.852 2531.26 124.12 2568.3 154.829C2605.13 185.375 2571.96 274.019 2450.22 320.583C2431.7 327.005 2425.18 313.264 2426.86 303.75ZM2416.22 363.097C2436.89 363.097 2453.65 379.852 2453.65 400.523C2453.65 421.199 2436.89 437.949 2416.22 437.949C2395.55 437.949 2378.79 421.194 2378.79 400.523C2378.79 379.857 2395.55 363.097 2416.22 363.097ZM2316.49 64.0093C2363.81 64.0093 2394.65 151.477 2333.43 263.241C2322.57 281.181 2308.98 278.597 2300.78 265.523C2237.88 152.667 2268.84 64.0093 2316.49 64.0093ZM2064.68 154.833C2101.14 124.593 2180.87 172.38 2204.98 297.824C2207.41 314.208 2197.04 325.838 2181.24 319.986C2060.75 273.269 2028 185.245 2064.68 154.833ZM2049.75 363.097C2070.41 363.097 2087.17 379.852 2087.17 400.523C2087.17 421.199 2070.41 437.949 2049.75 437.949C2029.07 437.949 2012.31 421.194 2012.31 400.523C2012.31 379.857 2029.07 363.097 2049.75 363.097ZM2012.31 2599.47C2012.31 2578.79 2029.07 2562.04 2049.75 2562.04C2070.41 2562.04 2087.17 2578.79 2087.17 2599.47C2087.17 2620.13 2070.41 2636.89 2049.75 2636.89C2029.07 2636.89 2012.31 2620.13 2012.31 2599.47ZM2204.98 2702.17C2180.87 2827.62 2101.14 2875.4 2064.68 2845.16C2028 2814.75 2060.75 2726.73 2181.24 2680C2197.04 2674.15 2207.41 2685.78 2204.98 2702.17ZM2232.98 2636.89C2212.3 2636.89 2195.55 2620.13 2195.55 2599.47C2195.55 2578.79 2212.3 2562.04 2232.98 2562.04C2253.64 2562.04 2270.41 2578.79 2270.41 2599.47C2270.41 2620.13 2253.64 2636.89 2232.98 2636.89ZM2232.98 437.954C2212.3 437.954 2195.55 421.199 2195.55 400.528C2195.55 379.857 2212.3 363.102 2232.98 363.102C2253.64 363.102 2270.41 379.857 2270.41 400.528C2270.41 421.199 2253.64 437.954 2232.98 437.954ZM2316.49 2935.98C2268.84 2935.98 2237.88 2847.33 2300.78 2734.47C2308.98 2721.4 2322.57 2718.82 2333.43 2736.75C2394.65 2848.51 2363.81 2935.98 2316.49 2935.98ZM2416.22 2636.89C2395.55 2636.89 2378.79 2620.13 2378.79 2599.47C2378.79 2578.79 2395.55 2562.04 2416.22 2562.04C2436.89 2562.04 2453.65 2578.79 2453.65 2599.47C2453.65 2620.13 2436.89 2636.89 2416.22 2636.89ZM2568.3 2845.15C2531.26 2875.87 2449.56 2826.13 2426.86 2696.24C2425.18 2686.72 2431.7 2672.99 2450.22 2679.4C2571.96 2725.96 2605.13 2814.62 2568.3 2845.15ZM2599.46 2636.89C2578.79 2636.89 2562.04 2620.13 2562.04 2599.47C2562.04 2578.79 2578.79 2562.04 2599.46 2562.04C2620.14 2562.04 2636.89 2578.79 2636.89 2599.47C2636.89 2620.13 2620.14 2636.89 2599.46 2636.89ZM2599.46 2453.64C2578.79 2453.64 2562.04 2436.89 2562.04 2416.22C2562.04 2395.55 2578.79 2378.79 2599.46 2378.79C2620.14 2378.79 2636.89 2395.55 2636.89 2416.22C2636.89 2436.89 2620.14 2453.64 2599.46 2453.64ZM2599.46 2270.4C2578.79 2270.4 2562.04 2253.64 2562.04 2232.97C2562.04 2212.31 2578.79 2195.55 2599.46 2195.55C2620.14 2195.55 2636.89 2212.31 2636.89 2232.97C2636.89 2253.64 2620.14 2270.4 2599.46 2270.4ZM2599.46 2087.16C2578.79 2087.16 2562.04 2070.4 2562.04 2049.73C2562.04 2029.06 2578.79 2012.3 2599.46 2012.3C2620.14 2012.3 2636.89 2029.06 2636.89 2049.73C2636.89 2070.4 2620.14 2087.16 2599.46 2087.16ZM2599.46 1903.92C2578.79 1903.92 2562.04 1887.16 2562.04 1866.49C2562.04 1845.81 2578.79 1829.06 2599.46 1829.06C2620.14 1829.06 2636.89 1845.81 2636.89 1866.49C2636.89 1887.16 2620.14 1903.92 2599.46 1903.92ZM2599.46 1720.67C2578.79 1720.67 2562.04 1703.91 2562.04 1683.24C2562.04 1662.57 2578.79 1645.81 2599.46 1645.81C2620.14 1645.81 2636.89 1662.57 2636.89 1683.24C2636.89 1703.91 2620.14 1720.67 2599.46 1720.67ZM2599.46 1537.42C2578.79 1537.42 2562.04 1520.67 2562.04 1500C2562.04 1479.33 2578.79 1462.57 2599.46 1462.57C2620.14 1462.57 2636.89 1479.33 2636.89 1500C2636.89 1520.67 2620.14 1537.42 2599.46 1537.42ZM2599.46 1354.18C2578.79 1354.18 2562.04 1337.42 2562.04 1316.75C2562.04 1296.08 2578.79 1279.32 2599.46 1279.32C2620.14 1279.32 2636.89 1296.08 2636.89 1316.75C2636.89 1337.42 2620.14 1354.18 2599.46 1354.18ZM2599.46 1170.93C2578.79 1170.93 2562.04 1154.18 2562.04 1133.5C2562.04 1112.83 2578.79 1096.08 2599.46 1096.08C2620.14 1096.08 2636.89 1112.83 2636.89 1133.5C2636.89 1154.18 2620.14 1170.93 2599.46 1170.93ZM2599.46 987.694C2578.79 987.694 2562.04 970.93 2562.04 950.264C2562.04 929.597 2578.79 912.838 2599.46 912.838C2620.14 912.838 2636.89 929.593 2636.89 950.264C2636.89 970.935 2620.14 987.694 2599.46 987.694ZM2599.46 804.449C2578.79 804.449 2562.04 787.69 2562.04 767.023C2562.04 746.347 2578.79 729.593 2599.46 729.593C2620.14 729.593 2636.89 746.352 2636.89 767.023C2636.89 787.685 2620.14 804.449 2599.46 804.449ZM2599.46 621.199C2578.79 621.199 2562.04 604.44 2562.04 583.773C2562.04 563.106 2578.79 546.347 2599.46 546.347C2620.14 546.347 2636.89 563.106 2636.89 583.773C2636.89 604.44 2620.14 621.199 2599.46 621.199ZM2599.46 437.954C2578.79 437.954 2562.04 421.199 2562.04 400.528C2562.04 379.857 2578.79 363.102 2599.46 363.102C2620.14 363.102 2636.89 379.857 2636.89 400.528C2636.89 421.199 2620.14 437.954 2599.46 437.954ZM2845.16 1248.18C2875.88 1285.22 2826.14 1366.92 2696.24 1389.62C2686.72 1391.3 2673 1384.78 2679.41 1366.26C2725.96 1244.52 2814.62 1211.35 2845.16 1248.18ZM2845.16 935.319C2814.75 971.995 2726.73 939.236 2680.01 818.75C2674.16 802.958 2685.78 792.588 2702.17 795.014C2827.61 819.13 2875.4 898.852 2845.16 935.319ZM2935.98 683.505C2935.98 731.148 2847.32 762.111 2734.47 699.208C2721.4 691.014 2718.82 677.417 2736.76 666.56C2848.51 605.343 2935.98 636.185 2935.98 683.505ZM2845.16 431.69C2875.88 468.731 2826.14 550.431 2696.24 573.125C2686.72 574.81 2673 568.292 2679.41 549.769C2725.96 428.028 2814.62 394.866 2845.16 431.69ZM2724.73 222.449C2753.9 222.449 2777.55 246.093 2777.55 275.264C2777.55 304.431 2753.9 328.074 2724.73 328.074C2695.57 328.074 2671.92 304.431 2671.92 275.264C2671.92 246.093 2695.57 222.449 2724.73 222.449ZM2724.73 1038.94C2753.9 1038.94 2777.55 1062.58 2777.55 1091.75C2777.55 1120.91 2753.9 1144.56 2724.73 1144.56C2695.57 1144.56 2671.92 1120.92 2671.92 1091.75C2671.92 1062.58 2695.57 1038.94 2724.73 1038.94ZM2724.73 1855.43C2753.9 1855.43 2777.55 1879.07 2777.55 1908.24C2777.55 1937.41 2753.9 1961.05 2724.73 1961.05C2695.57 1961.05 2671.92 1937.41 2671.92 1908.24C2671.92 1879.07 2695.57 1855.43 2724.73 1855.43ZM2724.73 2777.54C2695.57 2777.54 2671.92 2753.9 2671.92 2724.73C2671.92 2695.56 2695.57 2671.92 2724.73 2671.92C2753.9 2671.92 2777.55 2695.56 2777.55 2724.73C2777.55 2753.9 2753.9 2777.54 2724.73 2777.54ZM2845.16 2568.3C2814.62 2605.13 2725.97 2571.96 2679.41 2450.22C2672.99 2431.69 2686.72 2425.18 2696.24 2426.86C2826.13 2449.55 2875.87 2531.26 2845.16 2568.3ZM2935.98 2316.49C2935.98 2363.81 2848.51 2394.65 2736.76 2333.43C2718.82 2322.56 2721.4 2308.98 2734.47 2300.78C2847.32 2237.88 2935.98 2268.84 2935.98 2316.49ZM2845.16 2064.67C2875.4 2101.14 2827.62 2180.86 2702.17 2204.98C2685.78 2207.4 2674.16 2197.03 2680.01 2181.25C2726.72 2060.76 2814.74 2027.99 2845.16 2064.67ZM2845.16 1751.81C2814.75 1788.49 2726.73 1755.72 2680.01 1635.23C2674.16 1619.45 2685.78 1609.07 2702.17 1611.5C2827.61 1635.62 2875.4 1715.34 2845.16 1751.81ZM2734.47 1515.69C2721.4 1507.5 2718.82 1493.91 2736.75 1483.04C2848.51 1421.83 2935.98 1452.67 2935.98 1500C2935.98 1547.64 2847.32 1578.6 2734.47 1515.69Z" fill="white"/>
</svg>
