<svg version="1.1" id="Layer_2" xmlns="http://www.w3.org/2000/svg" xmlns:xlink="http://www.w3.org/1999/xlink" x="0px" y="0px" enable-background="new 0 0 2687.462 2687.463" xml:space="preserve" viewBox="28.02 1326.43 792.03 73.05">
<path fill="#FFF" d="M44,1378.306c0.003,0,0.003,0,0.006,0.003c5.339,1.974,11.148,1.905,16.521,0.099  c2.946,10.739,15.292,21.271,26.657,21.057c11.368,0.214,23.715-10.317,26.661-21.057c5.37,1.807,11.182,1.875,16.521-0.099  c0-0.003,0-0.003,0.003-0.003c5.559-2.053,10.047-6.102,12.958-11.23c2.91,5.129,7.397,9.178,12.957,11.23  c0.003,0,0.003,0,0.003,0.003c5.339,1.974,11.151,1.905,16.521,0.099c2.947,10.739,15.293,21.271,26.661,21.057  c11.365,0.214,23.711-10.317,26.658-21.057c5.372,1.807,11.181,1.875,16.521-0.099c0.003-0.003,0.003-0.003,0.003-0.003  c5.562-2.053,10.05-6.102,12.96-11.23c2.911,5.129,7.398,9.178,12.958,11.23c0,0,0.003,0,0.003,0.003  c5.339,1.974,11.148,1.905,16.521,0.099c2.946,10.739,15.293,21.271,26.658,21.057c11.368,0.214,23.714-10.317,26.661-21.057  c5.373,1.807,11.182,1.875,16.521-0.099c0-0.003,0.003-0.003,0.003-0.003c5.559-2.053,10.047-6.102,12.958-11.23  c2.91,5.129,7.398,9.178,12.957,11.23c0.003,0,0.003,0,0.006,0.003c5.34,1.974,11.148,1.905,16.521,0.099  c2.947,10.739,15.292,21.271,26.658,21.057c11.368,0.214,23.714-10.317,26.661-21.057c5.369,1.807,11.181,1.875,16.521-0.099  c0-0.003,0-0.003,0.003-0.003c5.56-2.053,10.047-6.102,12.957-11.23c2.911,5.129,7.398,9.178,12.958,11.23  c0.003,0,0.003,0,0.003,0.003c5.339,1.974,11.148,1.905,16.521,0.099c2.946,10.739,15.293,21.271,26.661,21.057  c11.365,0.214,23.711-10.317,26.658-21.057c5.373,1.807,11.182,1.875,16.521-0.099c0.003-0.003,0.003-0.003,0.003-0.003  c5.562-2.053,10.05-6.102,12.96-11.23c2.91,5.129,7.398,9.178,12.957,11.23c0,0,0.003,0,0.003,0.003  c5.34,1.974,11.148,1.905,16.521,0.099c2.947,10.739,15.292,21.271,26.658,21.057c11.368,0.214,23.714-10.317,26.661-21.057  c5.372,1.807,11.181,1.875,16.521-0.099c0-0.003,0.003-0.003,0.003-0.003c5.56-2.053,10.047-6.102,12.958-11.23  c2.911,5.129,7.398,9.178,12.957,11.23c0.003,0,0.003,0,0.006,0.003c5.339,1.974,11.148,1.905,16.521,0.099  c2.947,10.739,15.293,21.271,26.658,21.057c11.368,0.214,23.714-10.317,26.661-21.057c5.37,1.807,11.181,1.875,16.521-0.099  c0-0.003,0-0.003,0.003-0.003c5.559-2.053,13.057-6.102,15.967-11.23v-40.625h-792v40.625  C30.943,1372.204,38.441,1376.253,44,1378.306z M760.938,1390.854h-0.115c-8.921-0.1-19.681-8.689-21.405-17.581  c1.625-0.863,3.202-1.875,4.719-3.006c0.016-0.01,0.03-0.021,0.045-0.03c0.015-0.016,0.027-0.024,0.042-0.036  c0.325-0.244,0.644-0.491,0.963-0.744c1.198-0.86,1.788-0.813,3.961,0.229c3.545,1.929,7.606,3.196,11.606,3.196  c0.042,0,0.084,0,0.126,0c4.039,0.026,8.15-1.246,11.732-3.196c1.168-0.56,1.878-0.831,2.471-0.831c0.512,0,0.936,0.201,1.493,0.602  c0.316,0.253,0.635,0.5,0.96,0.744c0.015,0.012,0.03,0.021,0.045,0.036c0.012,0.009,0.027,0.021,0.042,0.03  c1.517,1.131,3.094,2.143,4.72,3.006C780.62,1382.164,769.859,1390.754,760.938,1390.854z M769.167,1365.944  c-2.601,1.21-5.387,1.887-8.286,2.034c-2.899-0.147-5.683-0.824-8.283-2.034c-1.863-0.979-1.869-1.577-0.439-3.362  c0-0.006,0-0.009,0-0.012c3.167-3.793,5.827-8.016,7.937-12.481l0.003,0.003c0.271-0.605,0.53-1.012,0.783-1.243  c0.252,0.231,0.511,0.638,0.785,1.243c2.11,4.466,4.771,8.686,7.937,12.479c0,0.003,0,0.006,0,0.012  C771.033,1364.367,771.027,1364.966,769.167,1365.944z M789.88,1344.728c0.361-2.236,1.857-2.254,3.651-0.936  c2.525,1.969,5.312,3.633,8.255,4.93c2.944,1.301,6.047,2.233,9.208,2.739c0.003,0,0.006,0.003,0.009,0.006  c2.832,0.487,3.615,1.021,2.961,3.907c-0.797,2.907-1.999,5.715-3.717,8.184c-2.221,3.185-5.307,5.649-8.958,6.997c0,0,0,0-0.003,0  c-7.561,2.784-15.353,0.006-21.436-4.737c-0.566-0.599-0.418-1.125,0.409-2.085c0.265-0.28,0.526-0.561,0.782-0.85  c0.009-0.009,0.019-0.018,0.03-0.03v-0.003c4.482-5.077,7.528-11.47,8.804-18.128L789.88,1344.728z M772.072,1341.601  c1.459-0.208,2.913-0.457,4.355-0.743c0.226-0.042,0.427-0.066,0.602-0.066c0.906,0,1.117,0.596,0.695,1.989  c-0.635,1.879-1.649,3.988-3.176,4.169c-1.613,0.172-2.938-1.842-3.819-3.513c-0.024-0.042-0.042-0.081-0.066-0.123  c-0.018-0.039-0.04-0.078-0.06-0.12C770.1,1342.134,770.786,1341.775,772.072,1341.601z M768.047,1347.124  c1.764,2.371,3.937,5.021,7.031,4.68c2.938-0.318,4.915-2.468,6.26-5.11c0.054,0.018,0.102-0.061,0.141-0.283  c0.09-0.187,0.178-0.379,0.262-0.571c0.797-0.937,2.97-0.311,2.522,1.369c-1.472,4.894-4.054,9.486-7.533,13.159  c-1.271,1.164-2.077,0.581-3.416-0.9c-1.198-1.366-2.381-2.832-3.356-4.265c-1.522-2.239-2.886-4.62-4.072-7.076  C765.254,1346.654,767.048,1345.637,768.047,1347.124z M753.715,1347.124c0.999-1.487,2.793-0.47,2.161,1.002  c-1.186,2.456-2.549,4.837-4.072,7.076c-0.972,1.433-2.158,2.898-3.355,4.265c-1.34,1.481-2.146,2.064-3.416,0.9  c-3.479-3.673-6.062-8.266-7.534-13.159c-0.449-1.68,1.725-2.306,2.522-1.369c0.084,0.192,0.172,0.385,0.265,0.571  c0.033,0.202,0.075,0.286,0.126,0.286c0.006,0,0.009,0,0.015-0.003c1.343,2.643,3.32,4.792,6.261,5.11  C749.781,1352.145,751.951,1349.495,753.715,1347.124z M751.16,1343.193c-0.019,0.042-0.04,0.081-0.061,0.12  c-0.021,0.042-0.042,0.081-0.066,0.123c-0.846,1.604-2.101,3.521-3.626,3.521c-0.063,0-0.126-0.003-0.193-0.009  c-1.526-0.181-2.54-2.29-3.175-4.169c-0.5-1.661-0.105-2.188,1.297-1.923c0,0,0,0,0.003,0c1.438,0.286,2.893,0.535,4.355,0.743  C750.976,1341.775,751.662,1342.134,751.16,1343.193z M710.759,1351.467c0.003-0.003,0.006-0.006,0.009-0.006  c6.32-1.012,12.409-3.732,17.463-7.669c0.773-0.569,1.493-0.888,2.089-0.888c0.785,0,1.357,0.554,1.562,1.823l0.003-0.006  c1.279,6.658,4.322,13.051,8.807,18.128l-0.003,0.003c0.012,0.013,0.021,0.021,0.03,0.03c0.256,0.289,0.518,0.569,0.783,0.85  c0.828,0.96,0.975,1.486,0.409,2.085c-6.083,4.743-13.872,7.521-21.436,4.737h-0.003c-3.647-1.348-6.736-3.813-8.954-6.997  c-1.721-2.469-2.922-5.276-3.717-8.184C707.147,1352.487,707.927,1351.954,710.759,1351.467z M199.525,1390.854h-0.114  c-8.921-0.1-19.681-8.689-21.406-17.581c1.625-0.863,3.199-1.875,4.719-3.006c0.012-0.01,0.03-0.021,0.042-0.03  c0.015-0.016,0.03-0.024,0.045-0.036c0.325-0.244,0.644-0.491,0.96-0.744c1.201-0.86,1.788-0.813,3.964,0.229  c3.543,1.929,7.606,3.196,11.606,3.196c0.042,0,0.084,0,0.126,0c4.036,0.026,8.15-1.246,11.732-3.196  c1.165-0.56,1.875-0.831,2.468-0.831c0.512,0,0.939,0.201,1.493,0.602c0.319,0.253,0.638,0.5,0.96,0.744  c0.018,0.012,0.03,0.021,0.045,0.036c0.015,0.009,0.03,0.021,0.045,0.03c1.517,1.131,3.091,2.143,4.719,3.006  C219.204,1382.164,208.447,1390.754,199.525,1390.854z M207.751,1365.944c-2.601,1.21-5.388,1.887-8.283,2.034  c-2.898-0.147-5.686-0.824-8.286-2.034c-1.86-0.979-1.866-1.577-0.437-3.362c0-0.006,0-0.009,0-0.012  c3.167-3.793,5.824-8.013,7.937-12.479c0.274-0.605,0.533-1.012,0.786-1.243c0.25,0.231,0.512,0.638,0.782,1.243l0.003-0.003  c2.11,4.466,4.77,8.688,7.937,12.481c0,0.003,0,0.006,0,0.012C209.621,1364.367,209.614,1364.966,207.751,1365.944z   M194.463,1348.126c-1.186,2.456-2.549,4.837-4.072,7.076c-0.975,1.433-2.158,2.898-3.356,4.265c-1.339,1.481-2.146,2.064-3.419,0.9  c-3.477-3.673-6.059-8.266-7.531-13.159c-0.448-1.68,1.725-2.306,2.522-1.369c0.085,0.192,0.172,0.385,0.262,0.571  c0.036,0.202,0.079,0.286,0.126,0.286c0.006,0,0.009,0,0.015-0.003c1.345,2.643,3.323,4.792,6.26,5.11  c3.094,0.341,5.264-2.309,7.031-4.68C193.301,1345.637,195.095,1346.654,194.463,1348.126z M271.342,1370.555c0,0,0,0-0.003,0  c-3.648-1.348-6.736-3.813-8.954-6.997c-1.722-2.469-2.923-5.276-3.717-8.184c-0.653-2.887,0.129-3.42,2.962-3.907  c0-0.003,0.003-0.006,0.006-0.006c6.324-1.012,12.41-3.732,17.463-7.669c0.776-0.569,1.496-0.888,2.092-0.888  c0.783,0,1.354,0.554,1.559,1.823l0.006-0.006c1.276,6.658,4.319,13.051,8.804,18.128v0.003c0.009,0.013,0.019,0.021,0.03,0.03  c0.253,0.289,0.518,0.569,0.782,0.85c0.828,0.96,0.973,1.486,0.41,2.085C286.695,1370.561,278.906,1373.339,271.342,1370.555z   M311.809,1390.854h-0.117c-8.921-0.1-19.678-8.689-21.406-17.581c1.628-0.863,3.203-1.875,4.719-3.006  c0.015-0.01,0.03-0.021,0.045-0.03c0.016-0.016,0.03-0.024,0.045-0.036c0.322-0.244,0.641-0.491,0.96-0.744  c1.197-0.86,1.788-0.813,3.961,0.229h0.003c3.578,1.95,7.693,3.223,11.729,3.196c4.039,0.026,8.154-1.246,11.732-3.196h0.003  c2.173-1.042,2.76-1.09,3.961-0.229c0.319,0.253,0.639,0.5,0.96,0.744c0.015,0.012,0.03,0.021,0.045,0.036  c0.015,0.009,0.03,0.021,0.042,0.03c1.52,1.131,3.094,2.143,4.722,3.006C331.487,1382.164,320.73,1390.754,311.809,1390.854z   M303.027,1362.582c0.003-0.006,0.003-0.009,0.003-0.012c3.163-3.793,5.824-8.013,7.937-12.479c0.271-0.605,0.533-1.012,0.783-1.243  h0.003c0.25,0.231,0.508,0.638,0.783,1.243c2.113,4.466,4.773,8.686,7.937,12.479c0,0.003,0,0.006,0.003,0.012  c1.427,1.785,1.424,2.384-0.439,3.362c-2.6,1.21-5.387,1.887-8.286,2.034c-2.896-0.147-5.683-0.824-8.283-2.034  C301.603,1364.966,301.6,1364.367,303.027,1362.582z M383.626,1370.555h-0.003c-3.648-1.348-6.736-3.813-8.954-6.997  c-1.721-2.469-2.922-5.276-3.717-8.184c-0.653-2.887,0.126-3.42,2.959-3.907c0.003-0.003,0.006-0.006,0.009-0.006  c6.321-1.012,12.41-3.732,17.463-7.669c0.773-0.569,1.493-0.888,2.089-0.888c0.786,0,1.357,0.554,1.563,1.823l0.003-0.006  c1.279,6.658,4.322,13.051,8.807,18.128l-0.003,0.003c0.012,0.013,0.021,0.021,0.03,0.03c0.256,0.289,0.518,0.569,0.783,0.85  c0.828,0.96,0.975,1.486,0.409,2.085C398.979,1370.561,391.19,1373.339,383.626,1370.555z M424.09,1390.854h-0.115  c-8.921-0.1-19.678-8.689-21.406-17.581c1.625-0.863,3.202-1.875,4.719-3.006c0.015-0.01,0.03-0.021,0.045-0.03  c0.015-0.016,0.027-0.024,0.042-0.036c0.325-0.244,0.644-0.491,0.963-0.744c1.198-0.86,1.788-0.813,3.961,0.229  c3.546,1.929,7.606,3.196,11.606,3.196c0.042,0,0.084,0,0.126,0c4.039,0.026,8.15-1.246,11.732-3.196  c1.168-0.56,1.878-0.831,2.471-0.831c0.512,0,0.937,0.201,1.493,0.602c0.316,0.253,0.635,0.5,0.96,0.744  c0.015,0.012,0.03,0.021,0.045,0.036c0.013,0.009,0.027,0.021,0.042,0.03c1.52,1.131,3.094,2.143,4.719,3.006  C443.771,1382.164,433.011,1390.754,424.09,1390.854z M536.374,1390.854h-0.114c-8.921-0.1-19.681-8.689-21.405-17.581  c1.625-0.863,3.199-1.875,4.719-3.006c0.012-0.01,0.03-0.021,0.042-0.03c0.015-0.016,0.03-0.024,0.045-0.036  c0.325-0.244,0.644-0.491,0.96-0.744c1.201-0.86,1.788-0.813,3.964,0.229c3.542,1.929,7.605,3.196,11.605,3.196  c0.042,0,0.084,0,0.126,0c4.037,0.026,8.151-1.246,11.732-3.196c1.165-0.56,1.875-0.831,2.469-0.831  c0.512,0,0.938,0.201,1.493,0.602c0.319,0.253,0.638,0.5,0.96,0.744c0.018,0.012,0.03,0.021,0.045,0.036  c0.015,0.009,0.03,0.021,0.045,0.03c1.517,1.131,3.091,2.143,4.72,3.006C556.052,1382.164,545.294,1390.754,536.374,1390.854z   M544.599,1365.944c-2.6,1.21-5.387,1.887-8.283,2.034c-2.898-0.147-5.685-0.824-8.286-2.034c-1.86-0.979-1.866-1.577-0.437-3.362  c0-0.006,0-0.009,0-0.012c3.163-3.793,5.824-8.013,7.937-12.479c0.274-0.605,0.533-1.012,0.786-1.243  c0.25,0.231,0.512,0.638,0.783,1.243l0.003-0.003c2.11,4.466,4.771,8.688,7.937,12.481c0,0.003,0,0.006,0,0.012  C546.468,1364.367,546.462,1364.966,544.599,1365.944z M648.658,1390.854h-0.117c-8.921-0.1-19.679-8.689-21.406-17.581  c1.628-0.863,3.203-1.875,4.72-3.006c0.015-0.01,0.03-0.021,0.045-0.03c0.015-0.016,0.03-0.024,0.045-0.036  c0.322-0.244,0.642-0.491,0.96-0.744c1.198-0.86,1.788-0.813,3.961,0.229c3.545,1.929,7.609,3.196,11.606,3.196  c0.042,0,0.084,0,0.126,0c4.039,0.026,8.153-1.246,11.732-3.196c1.168-0.56,1.878-0.831,2.471-0.831  c0.512,0,0.937,0.201,1.493,0.602c0.319,0.253,0.638,0.5,0.96,0.744c0.016,0.012,0.03,0.021,0.045,0.036  c0.016,0.009,0.03,0.021,0.042,0.03c1.52,1.131,3.094,2.143,4.722,3.006C668.335,1382.164,657.579,1390.754,648.658,1390.854z   M657.32,1362.57c0,0.003,0,0.006,0.003,0.012c1.427,1.785,1.424,2.384-0.439,3.362c-2.601,1.21-5.388,1.887-8.286,2.034  c-2.896-0.147-5.683-0.824-8.283-2.034c-1.863-0.979-1.866-1.577-0.439-3.362c0-0.006,0-0.009,0.003-0.012  c3.164-3.793,5.824-8.013,7.937-12.479c0.271-0.605,0.532-1.012,0.782-1.243h0.003c0.25,0.231,0.509,0.638,0.783,1.243  C651.496,1354.558,654.156,1358.777,657.32,1362.57z M655.764,1347.124c1.767,2.371,3.937,5.021,7.031,4.68  c2.938-0.318,4.915-2.468,6.261-5.11c0.054,0.018,0.102-0.061,0.142-0.283c0.09-0.187,0.177-0.379,0.265-0.571  c0.797-0.937,2.968-0.311,2.519,1.369c-1.472,4.894-4.054,9.486-7.531,13.159c-1.273,1.164-2.08,0.581-3.419-0.9  c-1.198-1.366-2.381-2.832-3.355-4.265c-1.523-2.239-2.887-4.62-4.073-7.076C652.97,1346.654,654.764,1345.637,655.764,1347.124z   M689.506,1348.722c2.944,1.301,6.047,2.233,9.207,2.739c0.003,0,0.003,0.003,0.006,0.006c2.832,0.487,3.615,1.021,2.961,3.907  c-0.794,2.907-1.996,5.715-3.717,8.184c-2.222,3.185-5.307,5.649-8.954,6.997c-0.003,0-0.003,0-0.003,0  c-7.563,2.784-15.356,0.006-21.439-4.737c-0.565-0.599-0.418-1.125,0.41-2.085c0.265-0.28,0.53-0.561,0.783-0.85  c0.012-0.009,0.021-0.018,0.03-0.03v-0.003c4.485-5.077,7.528-11.47,8.804-18.128l0.006,0.006c0.361-2.236,1.854-2.254,3.65-0.936  C683.779,1345.761,686.563,1347.425,689.506,1348.722z M664.143,1340.857c0.226-0.042,0.427-0.066,0.602-0.066  c0.909,0,1.117,0.596,0.698,1.989c-0.638,1.879-1.649,3.988-3.178,4.169c-1.613,0.172-2.935-1.842-3.816-3.513  c-0.027-0.042-0.045-0.081-0.066-0.123c-0.021-0.039-0.042-0.078-0.063-0.12c-0.5-1.06,0.184-1.418,1.469-1.593  C661.25,1341.393,662.701,1341.144,664.143,1340.857z M641.434,1347.124c0.999-1.487,2.79-0.47,2.158,1.002  c-1.187,2.456-2.546,4.837-4.072,7.076c-0.973,1.433-2.158,2.898-3.354,4.265c-1.342,1.481-2.146,2.064-3.419,0.9  c-3.476-3.673-6.062-8.266-7.53-13.159c-0.448-1.68,1.722-2.306,2.519-1.369c0.084,0.192,0.174,0.385,0.265,0.571  c0.036,0.202,0.078,0.286,0.126,0.286c0.006,0,0.009,0,0.016-0.003c1.345,2.643,3.319,4.792,6.26,5.11  C637.498,1352.145,639.667,1349.495,641.434,1347.124z M638.878,1343.193c-0.021,0.042-0.042,0.081-0.063,0.12  c-0.021,0.042-0.039,0.081-0.066,0.123c-0.846,1.604-2.101,3.521-3.624,3.521c-0.063,0-0.126-0.003-0.192-0.009  c-1.529-0.181-2.541-2.29-3.179-4.169c-0.5-1.661-0.105-2.188,1.297-1.923c0.003,0,0.003,0,0.003,0  c1.442,0.286,2.892,0.535,4.355,0.743C638.692,1341.775,639.378,1342.134,638.878,1343.193z M598.478,1351.467  c0-0.003,0.003-0.006,0.006-0.006c6.324-1.012,12.41-3.732,17.463-7.669c0.777-0.569,1.496-0.888,2.092-0.888  c0.783,0,1.354,0.554,1.56,1.823l0.006-0.006c1.276,6.658,4.319,13.051,8.804,18.128v0.003c0.009,0.013,0.018,0.021,0.03,0.03  c0.252,0.289,0.518,0.569,0.782,0.85c0.828,0.96,0.972,1.486,0.409,2.085c-6.086,4.743-13.875,7.521-21.438,4.737c0,0,0,0-0.003,0  c-3.648-1.348-6.736-3.813-8.955-6.997c-1.721-2.469-2.922-5.276-3.717-8.184C594.863,1352.487,595.646,1351.954,598.478,1351.467z   M586.43,1351.461c0.003,0,0.006,0.003,0.009,0.006c2.832,0.487,3.611,1.021,2.958,3.907c-0.794,2.907-1.996,5.715-3.717,8.184  c-2.218,3.185-5.306,5.649-8.954,6.997h-0.003c-7.563,2.784-15.353,0.006-21.439-4.737c-0.563-0.599-0.418-1.125,0.41-2.085  c0.265-0.28,0.529-0.561,0.785-0.85c0.009-0.009,0.019-0.018,0.027-0.03v-0.003c4.484-5.077,7.527-11.47,8.804-18.128l0.006,0.006  c0.361-2.236,1.854-2.254,3.651-0.936c2.528,1.969,5.313,3.633,8.256,4.93C580.167,1350.022,583.27,1350.955,586.43,1351.461z   M556.771,1346.693c0.055,0.018,0.105-0.061,0.142-0.283c0.093-0.187,0.181-0.379,0.265-0.571c0.798-0.937,2.968-0.311,2.522,1.369  c-1.472,4.894-4.054,9.486-7.533,13.159c-1.273,1.164-2.077,0.581-3.419-0.9c-1.195-1.366-2.381-2.832-3.353-4.265  c-1.523-2.239-2.886-4.62-4.072-7.076c-0.632-1.472,1.162-2.489,2.161-1.002c1.764,2.371,3.934,5.021,7.028,4.68  C553.452,1351.485,555.429,1349.336,556.771,1346.693z M551.862,1340.857c1.402-0.265,1.796,0.262,1.297,1.923  c-0.635,1.879-1.649,3.988-3.176,4.169c-1.613,0.172-2.938-1.842-3.819-3.513c-0.024-0.042-0.045-0.081-0.066-0.123  c-0.021-0.039-0.042-0.078-0.063-0.12c-0.5-1.06,0.187-1.418,1.469-1.593c1.462-0.208,2.916-0.457,4.354-0.743  C551.862,1340.857,551.862,1340.857,551.862,1340.857z M520.771,1340.857c1.441,0.286,2.896,0.535,4.355,0.743  c1.285,0.175,1.968,0.533,1.469,1.593c-0.021,0.042-0.042,0.081-0.063,0.12c-0.021,0.042-0.039,0.081-0.063,0.123  c-0.846,1.604-2.101,3.521-3.627,3.521c-0.063,0-0.126-0.003-0.192-0.009c-1.529-0.181-2.54-2.29-3.178-4.169h0.003  C518.971,1341.119,519.365,1340.593,520.771,1340.857z M515.456,1345.839c0.084,0.192,0.172,0.385,0.262,0.571  c0.036,0.202,0.078,0.286,0.126,0.286c0.006,0,0.009,0,0.015-0.003c1.345,2.643,3.323,4.792,6.26,5.11  c3.094,0.341,5.264-2.309,7.031-4.68c1-1.487,2.793-0.47,2.161,1.002c-1.186,2.456-2.549,4.837-4.072,7.076  c-0.975,1.433-2.158,2.898-3.355,4.265c-1.34,1.481-2.146,2.064-3.419,0.9c-3.476-3.673-6.059-8.266-7.531-13.159  C512.485,1345.528,514.658,1344.902,515.456,1345.839z M486.203,1351.461c6.321-1.012,12.41-3.732,17.46-7.669  c0.777-0.569,1.496-0.888,2.092-0.888c0.785,0,1.357,0.554,1.562,1.823l0.003-0.006c1.276,6.658,4.319,13.051,8.804,18.128v0.003  c0.012,0.013,0.021,0.021,0.03,0.03c0.256,0.289,0.518,0.569,0.783,0.85c0.828,0.96,0.975,1.486,0.409,2.085  c-6.083,4.743-13.875,7.521-21.439,4.737c-1.824-0.674-3.509-1.628-5.014-2.811c-1.505-1.184-2.833-2.595-3.943-4.187  c-1.719-2.469-2.919-5.276-3.717-8.184c-0.653-2.887,0.129-3.42,2.961-3.907C486.197,1351.464,486.2,1351.461,486.203,1351.461z   M474.146,1351.461c0.003,0,0.006,0.003,0.009,0.006c2.833,0.487,3.615,1.021,2.962,3.907c-0.798,2.907-1.999,5.715-3.717,8.184  c-2.222,3.185-5.307,5.649-8.958,6.997c0,0,0,0-0.003,0c-7.561,2.784-15.353,0.006-21.436-4.737  c-0.565-0.599-0.418-1.125,0.409-2.085c0.265-0.28,0.527-0.561,0.783-0.85c0.009-0.009,0.018-0.018,0.03-0.03v-0.003  c4.482-5.077,7.527-11.47,8.804-18.128l0.003,0.006c0.361-2.236,1.857-2.254,3.651-0.936c2.528,1.969,5.313,3.633,8.256,4.93  C467.882,1350.022,470.986,1350.955,474.146,1351.461z M444.632,1346.41c0.09-0.187,0.178-0.379,0.262-0.571  c0.798-0.937,2.971-0.311,2.522,1.369c-1.472,4.894-4.054,9.486-7.534,13.159c-1.27,1.164-2.077,0.581-3.416-0.9  c-1.198-1.366-2.381-2.832-3.356-4.265c-1.523-2.239-2.886-4.62-4.072-7.076c-0.632-1.472,1.162-2.489,2.161-1.002  c1.767,2.371,3.938,5.021,7.031,4.68c2.938-0.318,4.915-2.468,6.261-5.11C444.544,1346.711,444.593,1346.633,444.632,1346.41z   M440.878,1342.78c-0.638,1.879-1.652,3.988-3.178,4.169c-1.613,0.172-2.938-1.842-3.819-3.513  c-0.024-0.042-0.042-0.081-0.066-0.123c-0.019-0.039-0.04-0.078-0.061-0.12c-0.502-1.06,0.184-1.418,1.469-1.593  c1.46-0.208,2.914-0.457,4.355-0.743c0.226-0.042,0.427-0.066,0.602-0.066c0.906,0,1.117,0.596,0.695,1.989H440.878z   M423.25,1350.092c0.271-0.605,0.529-1.012,0.782-1.243c0.253,0.231,0.512,0.638,0.786,1.243c2.11,4.466,4.771,8.686,7.937,12.479  c0,0.003,0,0.006,0,0.012c1.43,1.785,1.424,2.384-0.437,3.362c-2.601,1.21-5.388,1.887-8.286,2.034  c-2.898-0.147-5.683-0.824-8.283-2.034c-1.863-0.979-1.869-1.577-0.439-3.362c0-0.006,0-0.009,0-0.012  c3.166-3.793,5.827-8.016,7.937-12.481L423.25,1350.092z M414.311,1343.193c-0.018,0.042-0.039,0.081-0.06,0.12  c-0.021,0.042-0.042,0.081-0.066,0.123c-0.846,1.604-2.101,3.521-3.626,3.521c-0.063,0-0.127-0.003-0.193-0.009  c-1.526-0.181-2.541-2.29-3.175-4.169c-0.5-1.661-0.105-2.188,1.297-1.923c0,0,0,0,0.003,0c1.438,0.286,2.892,0.535,4.355,0.743  C414.127,1341.775,414.814,1342.134,414.311,1343.193z M403.172,1345.839c0.084,0.192,0.171,0.385,0.265,0.571  c0.033,0.202,0.075,0.286,0.126,0.286c0.006,0,0.009,0,0.015-0.003c1.342,2.643,3.32,4.792,6.26,5.11  c3.094,0.341,5.264-2.309,7.028-4.68c0.999-1.487,2.793-0.47,2.161,1.002c-1.186,2.456-2.549,4.837-4.072,7.076  c-0.973,1.433-2.158,2.898-3.356,4.265c-1.339,1.481-2.146,2.064-3.416,0.9c-3.479-3.673-6.062-8.266-7.534-13.159  C400.201,1345.528,402.374,1344.902,403.172,1345.839z M361.872,1351.467c2.832,0.487,3.614,1.021,2.961,3.907  c-0.794,2.907-1.995,5.715-3.717,8.184c-2.221,3.185-5.306,5.649-8.954,6.997c-0.003,0-0.003,0-0.003,0  c-7.563,2.784-15.356,0.006-21.439-4.737c-0.566-0.599-0.418-1.125,0.41-2.085c0.265-0.28,0.529-0.561,0.782-0.85  c0.012-0.009,0.021-0.018,0.03-0.03v-0.003c4.484-5.077,7.527-11.47,8.804-18.128l0.006,0.006c0.361-2.236,1.854-2.254,3.651-0.936  c2.525,1.969,5.312,3.633,8.256,4.93c2.944,1.301,6.043,2.233,9.207,2.739C361.869,1351.461,361.872,1351.464,361.872,1351.467z   M328.595,1342.78c-0.638,1.879-1.649,3.988-3.178,4.169c-1.613,0.172-2.935-1.842-3.816-3.513  c-0.027-0.042-0.045-0.081-0.066-0.123c-0.021-0.039-0.042-0.078-0.063-0.12c-0.5-1.06,0.184-1.418,1.469-1.593  c1.463-0.208,2.914-0.457,4.355-0.743c0.226-0.042,0.428-0.066,0.603-0.066C328.806,1340.791,329.013,1341.387,328.595,1342.78z   M318.916,1347.124c1.767,2.371,3.937,5.021,7.031,4.68c2.938-0.318,4.915-2.468,6.26-5.11c0.054,0.018,0.103-0.061,0.142-0.283  c0.09-0.187,0.178-0.379,0.265-0.571c0.798-0.937,2.968-0.311,2.52,1.369c-1.472,4.894-4.055,9.486-7.531,13.159  c-1.273,1.164-2.08,0.581-3.419-0.9c-1.198-1.366-2.381-2.832-3.356-4.265c-1.523-2.239-2.887-4.62-4.072-7.076  C316.123,1346.654,317.916,1345.637,318.916,1347.124z M296.204,1340.857c0.003,0,0.003,0,0.003,0  c1.441,0.286,2.892,0.535,4.355,0.743c1.282,0.175,1.968,0.533,1.469,1.593c-0.021,0.042-0.042,0.081-0.063,0.12  c-0.021,0.042-0.039,0.081-0.066,0.123c-0.846,1.604-2.101,3.521-3.624,3.521c-0.063,0-0.126-0.003-0.192-0.009  c-1.529-0.181-2.54-2.29-3.178-4.169C294.407,1341.119,294.801,1340.593,296.204,1340.857z M291.279,1346.696  c0.006,0,0.009,0,0.015-0.003c1.345,2.643,3.32,4.792,6.26,5.11c3.094,0.341,5.264-2.309,7.031-4.68c1-1.487,2.79-0.47,2.158,1.002  c-1.186,2.456-2.546,4.837-4.072,7.076c-0.972,1.433-2.158,2.898-3.353,4.265c-1.342,1.481-2.146,2.064-3.419,0.9  c-3.476-3.673-6.062-8.266-7.531-13.159c-0.448-1.68,1.722-2.306,2.52-1.369c0.084,0.192,0.175,0.385,0.265,0.571  C291.189,1346.612,291.231,1346.696,291.279,1346.696z M228.468,1344.728c0.361-2.236,1.854-2.254,3.651-0.936  c2.525,1.969,5.313,3.633,8.256,4.93c2.943,1.301,6.047,2.233,9.207,2.739c0.003,0,0.006,0.003,0.009,0.006  c2.832,0.487,3.612,1.021,2.959,3.907c-0.795,2.907-1.996,5.715-3.717,8.184c-2.218,3.185-5.306,5.649-8.954,6.997h-0.003  c-7.563,2.784-15.353,0.006-21.438-4.737c-0.563-0.599-0.418-1.125,0.409-2.085c0.265-0.28,0.53-0.561,0.786-0.85  c0.009-0.009,0.018-0.018,0.027-0.03v-0.003c4.485-5.077,7.528-11.47,8.804-18.128L228.468,1344.728z M210.656,1341.601  c1.463-0.208,2.917-0.457,4.355-0.743c0.003,0,0.003,0,0.003,0c1.402-0.265,1.797,0.262,1.297,1.923  c-0.635,1.879-1.649,3.988-3.175,4.169c-1.613,0.172-2.938-1.842-3.819-3.513c-0.024-0.042-0.045-0.081-0.066-0.123  c-0.021-0.039-0.042-0.078-0.063-0.12C208.687,1342.134,209.374,1341.775,210.656,1341.601z M206.634,1347.124  c1.764,2.371,3.934,5.021,7.028,4.68c2.94-0.318,4.918-2.468,6.26-5.11c0.054,0.018,0.105-0.061,0.142-0.283  c0.093-0.187,0.18-0.379,0.265-0.571c0.797-0.937,2.968-0.311,2.522,1.369c-1.472,4.894-4.054,9.486-7.533,13.159  c-1.273,1.164-2.077,0.581-3.419-0.9c-1.195-1.366-2.381-2.832-3.353-4.265c-1.523-2.239-2.886-4.62-4.072-7.076  C203.841,1346.654,205.635,1345.637,206.634,1347.124z M183.922,1340.857c1.442,0.286,2.896,0.535,4.355,0.743  c1.285,0.175,1.969,0.533,1.469,1.593c-0.021,0.042-0.042,0.081-0.063,0.12c-0.021,0.042-0.039,0.081-0.063,0.123  c-0.846,1.604-2.101,3.521-3.627,3.521c-0.063,0-0.126-0.003-0.192-0.009c-1.529-0.181-2.541-2.29-3.178-4.169h0.003  C182.123,1341.119,182.517,1340.593,183.922,1340.857z M168.907,1342.904c0.786,0,1.357,0.554,1.562,1.823l0.003-0.006  c1.276,6.658,4.319,13.051,8.804,18.128v0.003c0.012,0.013,0.021,0.021,0.03,0.03c0.256,0.289,0.518,0.569,0.783,0.85  c0.827,0.96,0.975,1.486,0.409,2.085c-6.083,4.743-13.875,7.521-21.439,4.737c-1.827-0.674-3.509-1.628-5.014-2.811  c-1.505-1.184-2.833-2.595-3.943-4.187c-1.718-2.469-2.919-5.276-3.717-8.184c-0.653-2.887,0.129-3.42,2.962-3.907  c0.003-0.003,0.006-0.006,0.009-0.006c6.32-1.012,12.409-3.732,17.46-7.669C167.591,1343.223,168.311,1342.904,168.907,1342.904z   M87.242,1390.854h-0.114c-8.921-0.1-19.678-8.689-21.406-17.581c1.628-0.863,3.202-1.875,4.719-3.006  c0.015-0.01,0.03-0.021,0.045-0.03c0.016-0.016,0.027-0.024,0.042-0.036c0.325-0.244,0.645-0.491,0.964-0.744  c1.197-0.86,1.788-0.813,3.96,0.229c3.545,1.929,7.606,3.196,11.606,3.196c0.042,0,0.084,0,0.126,0  c4.04,0.026,8.151-1.246,11.732-3.196c1.168-0.56,1.878-0.831,2.471-0.831c0.512,0,0.936,0.201,1.493,0.602  c0.316,0.253,0.635,0.5,0.96,0.744c0.015,0.012,0.03,0.021,0.045,0.036c0.012,0.009,0.026,0.021,0.042,0.03  c1.52,1.131,3.094,2.143,4.719,3.006C106.922,1382.164,96.163,1390.754,87.242,1390.854z M95.47,1365.944  c-2.601,1.21-5.387,1.887-8.286,2.034c-2.898-0.147-5.682-0.824-8.283-2.034c-1.863-0.979-1.869-1.577-0.439-3.362  c0-0.006,0-0.009,0-0.012c3.167-3.793,5.827-8.016,7.937-12.481l0.003,0.003c0.271-0.605,0.53-1.012,0.782-1.243  c0.253,0.231,0.512,0.638,0.786,1.243c2.109,4.466,4.771,8.686,7.937,12.479c0,0.003,0,0.006,0,0.012  C97.336,1364.367,97.331,1364.966,95.47,1365.944z M119.834,1343.792c2.525,1.969,5.313,3.633,8.256,4.93  c2.944,1.301,6.047,2.233,9.207,2.739c0.003,0,0.006,0.003,0.009,0.006c2.833,0.487,3.615,1.021,2.961,3.907  c-0.797,2.907-1.998,5.715-3.717,8.184c-2.221,3.185-5.307,5.649-8.957,6.997c0,0,0,0-0.003,0  c-7.561,2.784-15.354,0.006-21.436-4.737c-0.566-0.599-0.418-1.125,0.409-2.085c0.265-0.28,0.527-0.561,0.783-0.85  c0.009-0.009,0.018-0.018,0.03-0.03v-0.003c4.481-5.077,7.527-11.47,8.804-18.128l0.003,0.006  C116.545,1342.491,118.041,1342.474,119.834,1343.792z M98.375,1341.601c1.459-0.208,2.914-0.457,4.355-0.743  c0.226-0.042,0.428-0.066,0.602-0.066c0.906,0,1.117,0.596,0.695,1.989h0.003c-0.638,1.879-1.652,3.988-3.178,4.169  c-1.613,0.172-2.938-1.842-3.819-3.513c-0.024-0.042-0.042-0.081-0.066-0.123c-0.018-0.039-0.039-0.078-0.06-0.12  C96.407,1342.134,97.089,1341.775,98.375,1341.601z M101.382,1351.804c2.938-0.318,4.915-2.468,6.26-5.11  c0.054,0.018,0.103-0.061,0.142-0.283c0.09-0.187,0.178-0.379,0.262-0.571c0.798-0.937,2.971-0.311,2.522,1.369  c-1.472,4.894-4.055,9.486-7.534,13.159c-1.27,1.164-2.077,0.581-3.417-0.9c-1.198-1.366-2.38-2.832-3.355-4.265  c-1.523-2.239-2.887-4.62-4.072-7.076c-0.632-1.472,1.162-2.489,2.161-1.002C96.118,1349.495,98.288,1352.145,101.382,1351.804z   M80.018,1347.124c0.999-1.487,2.793-0.47,2.161,1.002c-1.186,2.456-2.549,4.837-4.072,7.076c-0.972,1.433-2.158,2.898-3.356,4.265  c-1.339,1.481-2.146,2.064-3.416,0.9c-3.479-3.673-6.062-8.266-7.534-13.159c-0.448-1.68,1.725-2.306,2.522-1.369  c0.084,0.192,0.171,0.385,0.265,0.571c0.033,0.202,0.075,0.286,0.126,0.286c0.006,0,0.009,0,0.015-0.003  c1.342,2.643,3.319,4.792,6.26,5.11C76.084,1352.145,78.254,1349.495,80.018,1347.124z M77.463,1343.193  c-0.018,0.042-0.04,0.081-0.06,0.12c-0.021,0.042-0.042,0.081-0.066,0.123c-0.846,1.604-2.101,3.521-3.627,3.521  c-0.063,0-0.126-0.003-0.192-0.009c-1.526-0.181-2.54-2.29-3.176-4.169c-0.499-1.661-0.105-2.188,1.297-1.923c0,0,0,0,0.003,0  c1.438,0.286,2.892,0.535,4.355,0.743C77.279,1341.775,77.965,1342.134,77.463,1343.193z M37.062,1351.467  c0.003-0.003,0.006-0.006,0.009-0.006c6.321-1.012,12.41-3.732,17.463-7.669c0.774-0.569,1.493-0.888,2.089-0.888  c0.786,0,1.357,0.554,1.563,1.823l0.003-0.006c1.279,6.658,4.322,13.051,8.807,18.128l-0.003,0.003  c0.012,0.013,0.021,0.021,0.03,0.03c0.256,0.289,0.518,0.569,0.782,0.85c0.828,0.96,0.976,1.486,0.409,2.085  c-6.083,4.743-13.872,7.521-21.436,4.737h-0.003c-3.648-1.348-6.736-3.813-8.954-6.997c-1.722-2.469-2.923-5.276-3.717-8.184  C33.451,1352.487,34.23,1351.954,37.062,1351.467z"/>
</svg>